<svg width="22" height="22" viewBox="0 0 22 22" fill="none" xmlns="http://www.w3.org/2000/svg">
<g id="filter_drama" clip-path="url(#clip0_5805_1603)">
<path id="Vector" d="M17.7375 9.20317C17.1142 6.04067 14.3367 3.6665 11 3.6665C8.35083 3.6665 6.05917 5.16984 4.91333 7.36984C2.15417 7.66317 0 9.9915 0 12.8332C0 15.8673 2.46583 18.3332 5.5 18.3332H17.4167C19.9467 18.3332 22 16.2798 22 13.7498C22 11.3298 20.1208 9.36817 17.7375 9.20317ZM17.4167 16.4998H5.5C3.47417 16.4998 1.83333 14.859 1.83333 12.8332C1.83333 10.8073 3.47417 9.1665 5.5 9.1665C7.52583 9.1665 9.16667 10.8073 9.16667 12.8332H11C11 10.3032 9.295 8.1765 6.96667 7.53484C7.8925 6.3065 9.35 5.49984 11 5.49984C13.7775 5.49984 16.0417 7.764 16.0417 10.5415V10.9998H17.4167C18.9292 10.9998 20.1667 12.2373 20.1667 13.7498C20.1667 15.2623 18.9292 16.4998 17.4167 16.4998Z" fill="#1A4756"/>
</g>
<defs>
<clipPath id="clip0_5805_1603">
<rect width="22" height="22" fill="white"/>
</clipPath>
</defs>
</svg>
