<svg width="16" height="16" viewBox="0 0 16 16" fill="none" xmlns="http://www.w3.org/2000/svg">
<path d="M15.4608 0.541937C15.4385 0.821943 15.4056 1.1958 15.3593 1.64124C15.2524 2.66769 15.0742 4.07082 14.7887 5.57974C14.5029 7.09047 14.1117 8.69613 13.5819 10.1318C13.0489 11.5759 12.3915 12.8041 11.5965 13.5991C9.69791 15.4977 6.91518 15.9696 4.56786 15.0255C5.28733 11.5907 7.12688 8.56903 9.71267 6.38464L9.16044 5.5585C6.01472 7.18427 3.45545 9.83866 1.89572 13.029C-0.119099 10.4815 0.0451635 6.76464 2.40356 4.40624C3.19863 3.61117 4.42675 2.95376 5.87092 2.42083C7.30656 1.89104 8.91222 1.49979 10.423 1.21397C11.9319 0.928499 13.335 0.750262 14.3615 0.643437C14.8069 0.597079 15.1808 0.564236 15.4608 0.541937Z" fill="white" stroke="#1A4756"/>
</svg>
