<svg width="22" height="22" viewBox="0 0 22 22" fill="none" xmlns="http://www.w3.org/2000/svg">
<g clip-path="url(#clip0_5805_700)">
<path d="M16.1882 7.33346L10.9998 2.1543L5.8115 7.33346C4.3815 8.76346 3.6665 10.6701 3.6665 12.5035C3.6665 14.3368 4.3815 16.271 5.8115 17.701C7.2415 19.131 9.12067 19.8551 10.9998 19.8551C12.879 19.8551 14.7582 19.131 16.1882 17.701C17.6182 16.271 18.3332 14.3368 18.3332 12.5035C18.3332 10.6701 17.6182 8.76346 16.1882 7.33346ZM5.49984 12.8335C5.509 11.0001 6.06817 9.83596 7.11317 8.80013L10.9998 4.83096L14.8865 8.84596C15.9315 9.87263 16.4907 11.0001 16.4998 12.8335H5.49984Z" fill="#1A4756"/>
</g>
<defs>
<clipPath id="clip0_5805_700">
<rect width="22" height="22" fill="white"/>
</clipPath>
</defs>
</svg>
