<svg width="22" height="22" viewBox="0 0 22 22" fill="none" xmlns="http://www.w3.org/2000/svg">
<g id="waves">
<path id="Vector" d="M15.5835 15.5741C14.346 15.5741 13.5668 15.9591 12.8793 16.3075C12.2835 16.61 11.7977 16.8575 11.0002 16.8575C10.1752 16.8575 9.71683 16.6283 9.121 16.3075C8.4335 15.9591 7.68183 15.5741 6.41683 15.5741C5.15183 15.5741 4.40016 15.9591 3.71266 16.3075C3.11683 16.61 2.64016 16.8575 1.8335 16.8575V18.645C3.071 18.645 3.85016 18.26 4.53766 17.9116C5.1335 17.6091 5.61016 17.3616 6.41683 17.3616C7.2235 17.3616 7.70016 17.5908 8.296 17.9116C8.9835 18.26 9.73516 18.645 11.0002 18.645C12.2652 18.645 13.0168 18.26 13.7043 17.9116C14.3002 17.6091 14.786 17.3616 15.5835 17.3616C16.4085 17.3616 16.8668 17.5908 17.4627 17.9116C18.1502 18.26 18.911 18.645 20.1668 18.645V16.8575C19.3418 16.8575 18.8835 16.6283 18.2877 16.3075C17.6002 15.9591 16.821 15.5741 15.5835 15.5741ZM15.5835 11.495C14.346 11.495 13.5668 11.8891 12.8793 12.2283C12.2835 12.5216 11.7977 12.7783 11.0002 12.7783C10.1752 12.7783 9.71683 12.5491 9.121 12.2283C8.4335 11.88 7.68183 11.495 6.41683 11.495C5.15183 11.495 4.40016 11.8891 3.71266 12.2283C3.11683 12.5216 2.64016 12.7783 1.8335 12.7783V14.5658C3.071 14.5658 3.85016 14.1716 4.53766 13.8325C5.1335 13.5116 5.59183 13.2825 6.41683 13.2825C7.24183 13.2825 7.70016 13.5116 8.296 13.8325C8.9835 14.1808 9.73516 14.5658 11.0002 14.5658C12.2652 14.5658 13.0168 14.1716 13.7043 13.8325C14.3002 13.5116 14.7585 13.2825 15.5835 13.2825C16.4085 13.2825 16.8668 13.5116 17.4627 13.8325C18.1502 14.1808 18.911 14.5658 20.1668 14.5658V12.7783C19.3418 12.7783 18.8835 12.5491 18.2877 12.2283C17.6002 11.88 16.821 11.495 15.5835 11.495ZM18.2877 4.08831C17.6002 3.73998 16.8393 3.35498 15.5835 3.35498C14.3277 3.35498 13.5668 3.73998 12.8793 4.08831C12.2835 4.38165 11.7977 4.63831 11.0002 4.63831C10.1752 4.63831 9.71683 4.40915 9.121 4.08831C8.4335 3.74915 7.68183 3.35498 6.41683 3.35498C5.15183 3.35498 4.40016 3.73998 3.71266 4.08831C3.11683 4.39081 2.64016 4.63831 1.8335 4.63831V6.40748C3.071 6.40748 3.85016 6.01331 4.53766 5.67415C5.1335 5.37165 5.61016 5.12415 6.41683 5.12415C7.2235 5.12415 7.70016 5.35331 8.296 5.67415C8.9835 6.02248 9.73516 6.40748 11.0002 6.40748C12.2652 6.40748 13.0168 6.01331 13.7043 5.67415C14.3002 5.38081 14.786 5.12415 15.5835 5.12415C16.4085 5.12415 16.8668 5.35331 17.4627 5.67415C18.1502 6.02248 18.911 6.40748 20.1668 6.40748V4.61998C19.3418 4.61998 18.8835 4.39081 18.2877 4.08831ZM15.5835 7.41581C14.346 7.41581 13.5668 7.80998 12.8793 8.14915C12.2835 8.46998 11.8252 8.69915 11.0002 8.69915C10.1752 8.69915 9.71683 8.46998 9.121 8.14915C8.4335 7.80081 7.68183 7.41581 6.41683 7.41581C5.15183 7.41581 4.40016 7.80998 3.71266 8.14915C3.11683 8.46998 2.6585 8.69915 1.8335 8.69915V10.4866C3.071 10.4866 3.85016 10.0925 4.53766 9.75331C5.1335 9.45998 5.61933 9.20331 6.41683 9.20331C7.21433 9.20331 7.70016 9.43248 8.296 9.75331C8.9835 10.1016 9.73516 10.4866 11.0002 10.4866C12.2652 10.4866 13.0168 10.0925 13.7043 9.75331C14.3002 9.45998 14.786 9.20331 15.5835 9.20331C16.4085 9.20331 16.8668 9.43248 17.4627 9.75331C18.1502 10.1016 18.911 10.4866 20.1668 10.4866V8.69915C19.3418 8.69915 18.8835 8.46998 18.2877 8.14915C17.6002 7.80081 16.821 7.41581 15.5835 7.41581Z" fill="#1A4756"/>
</g>
</svg>
